<?xml version="1.0" encoding="utf-8"?>
<!-- Generator: Adobe Illustrator 24.3.0, SVG Export Plug-In . SVG Version: 6.00 Build 0)  -->
<svg version="1.1" id="Layer_1" xmlns="http://www.w3.org/2000/svg" xmlns:xlink="http://www.w3.org/1999/xlink" x="0px" y="0px"
	 viewBox="0 0 290.4 27" style="enable-background:new 0 0 290.4 27;" xml:space="preserve">
<style type="text/css">
	.st0{fill:#1D2536;}
</style>
<g>
	<g>
		<g>
			<g>
				<path class="st0" d="M43.4,10.2c-2.5,1.8-5.2,3.3-8.1,4.6c-1.4,0.6-3,1-4.6,1.3c-1.2,0.1-2.3,0.2-3.5,0.2v9.5h23.7v-21
					L43.4,10.2L43.4,10.2z"/>
			</g>
			<g>
				<path class="st0" d="M9.6,10.2c2.5,1.8,5.2,3.3,8.1,4.6c1.4,0.6,3,1,4.6,1.3c1.2,0.1,2.3,0.2,3.5,0.2v9.5H2.1v-21L9.6,10.2
					L9.6,10.2z"/>
			</g>
			<g>
				<path class="st0" d="M27.2,1.3v13.6c1.1,0,2.3-0.1,3.4-0.2l0,0c1.5-0.2,2.9-0.6,4.2-1.2c2.8-1.2,5.4-2.7,7.8-4.4l0,0l8.3-6V1.3
					H27.2z"/>
			</g>
			<g>
				<path class="st0" d="M25.8,1.3v13.6c-1.1,0-2.3-0.1-3.4-0.2l0,0c-1.5-0.2-2.9-0.6-4.2-1.2c-2.8-1.2-5.4-2.7-7.8-4.4l0,0l-8.3-6
					V1.3H25.8z"/>
			</g>
		</g>
		<g>
			<path class="st0" d="M60.4,15.2V6.7h3.1v8.2c0,2.1,1,3.1,2.7,3.1c1.8,0,2.7-1,2.7-3.2V6.7H72V15c0,3.7-2.2,5.5-5.9,5.5
				C62.7,20.5,60.4,18.9,60.4,15.2z"/>
			<path class="st0" d="M81.2,20.3v-6.1c0-1.5-0.4-2.2-1.6-2.2c-1.2,0-1.9,1.1-1.9,2.8v5.5h-3v-8c0-1.1,0-1.8-0.1-2.4h2.9
				c0,0.4,0.1,1.6,0.2,2.1c0.5-1.6,1.8-2.3,3.3-2.3c2.6,0,3.4,1.8,3.4,3.7v6.9H81.2z"/>
			<path class="st0" d="M86.9,8.6V5.7h3v2.8H86.9z M86.9,20.3V9.9h3v10.4H86.9z"/>
			<path class="st0" d="M98.8,20.3h-3.6L91.5,9.9h3l1.8,5.5l0.7,2.5l0.7-2.5l1.6-5.5h3L98.8,20.3z"/>
			<path class="st0" d="M102.9,15c0-4.1,2.3-5.3,5.1-5.3c3.6,0,4.8,2.2,4.8,5c0,0.5,0,0.9,0,0.9h-6.6v0.3c0,1.3,0.5,2.6,1.9,2.6
				c1,0,1.5-0.4,1.6-1.4l2.9,0.2c-0.4,1.7-1.4,3.2-4.6,3.2C104.7,20.5,102.9,18.7,102.9,15z M106.1,13.9h3.5v0
				c0-1.8-0.7-2.3-1.7-2.3C106.9,11.5,106.2,12,106.1,13.9z"/>
			<path class="st0" d="M114.8,20.3v-7.9c0-0.7,0-2.2-0.1-2.5h2.9c0,0.2,0.1,1.3,0.2,2c0.3-1.2,1.1-2.2,2.7-2.2c0.1,0,0.4,0,0.7,0
				v2.6c-0.4-0.1-0.7-0.1-1-0.1c-1.6,0-2.3,1.1-2.3,2.6v5.4H114.8z"/>
			<path class="st0" d="M126.4,20.5c-3.1,0-4.3-1.5-4.5-3l2.8-0.3c0.1,0.7,0.5,1.4,1.7,1.4c1,0,1.5-0.4,1.5-1c0-0.7-0.5-1-2.2-1.4
				c-2.6-0.6-3.5-1.6-3.5-3.3c0-1.9,1.4-3.1,4.2-3.1c2.5,0,4.1,1.2,4.3,2.9l-2.8,0.2c0-0.8-0.7-1.2-1.6-1.2c-0.9,0-1.3,0.4-1.3,0.9
				c0,0.6,0.2,0.9,2.3,1.4c2.1,0.5,3.7,1.2,3.7,3.3C130.9,19.2,129.4,20.5,126.4,20.5z"/>
			<path class="st0" d="M132.7,8.6V5.7h3v2.8H132.7z M132.7,20.3V9.9h3v10.4H132.7z"/>
			<path class="st0" d="M145.1,20.3c0-0.1-0.1-1.3-0.1-1.7h0c-0.6,1.3-1.7,1.9-3.3,1.9c-2.8,0-3.8-2.5-3.8-5.4c0-3.3,1.3-5.4,4-5.4
				c1.5,0,2.6,0.6,3.2,1.8h0c0-0.3,0-1,0-1.7V5.1h3V18c0,0.7,0,2,0.1,2.3H145.1z M145,15c0-2.6-1.1-3.2-2.1-3.2c-1.3,0-2,1-2,3.2
				c0,2.3,0.6,3.4,1.9,3.4C143.9,18.4,145,17.7,145,15z"/>
			<path class="st0" d="M160.3,18.3v2.1c-0.7,0.1-1,0.1-1.6,0.1c-1.5,0-2.5-0.7-2.5-1.9c-0.5,1.3-1.6,1.9-3.1,1.9
				c-2.3,0-3.4-1.5-3.4-3.1c0-2.4,1.7-3.4,5.1-3.4h1v-0.9c0-1.2-0.5-1.6-1.5-1.6c-1,0-1.5,0.5-1.5,1.5l-2.8-0.2
				c0.2-1.9,1.6-3.2,4.5-3.2c2.9,0,4.2,1.3,4.2,3.8v4.1c0,0.5,0.2,0.8,0.7,0.8H160.3z M154.2,18.5c1,0,1.8-0.8,1.8-2.2v-0.8h-1.3
				c-1,0-1.9,0.4-1.9,1.5C152.7,17.8,153.2,18.5,154.2,18.5z"/>
			<path class="st0" d="M168.7,20.3c0-0.1-0.1-1.3-0.1-1.7h0c-0.6,1.3-1.7,1.9-3.3,1.9c-2.8,0-3.8-2.5-3.8-5.4c0-3.3,1.3-5.4,4-5.4
				c1.5,0,2.6,0.6,3.2,1.8h0c0-0.3,0-1,0-1.7V5.1h3V18c0,0.7,0,2,0.1,2.3H168.7z M168.6,15c0-2.6-1.1-3.2-2.1-3.2c-1.3,0-2,1-2,3.2
				c0,2.3,0.6,3.4,1.9,3.4C167.5,18.4,168.6,17.7,168.6,15z"/>
			<path class="st0" d="M173.7,15c0-4.1,2.3-5.3,5.1-5.3c3.6,0,4.8,2.2,4.8,5c0,0.5,0,0.9,0,0.9h-6.6v0.3c0,1.3,0.5,2.6,1.9,2.6
				c0.9,0,1.5-0.4,1.6-1.4l2.9,0.2c-0.4,1.7-1.4,3.2-4.6,3.2C175.5,20.5,173.7,18.7,173.7,15z M176.9,13.9h3.5v0
				c0-1.8-0.7-2.3-1.7-2.3C177.7,11.5,177,12,176.9,13.9z"/>
			<path class="st0" d="M197.6,20.3c0-0.1-0.1-1.3-0.1-1.7h0c-0.6,1.3-1.7,1.9-3.3,1.9c-2.8,0-3.8-2.5-3.8-5.4c0-3.3,1.3-5.4,4-5.4
				c1.5,0,2.6,0.6,3.2,1.8h0c0-0.3,0-1,0-1.7V5.1h3V18c0,0.7,0,2,0.1,2.3H197.6z M197.5,15c0-2.6-1.1-3.2-2.1-3.2c-1.3,0-2,1-2,3.2
				c0,2.3,0.6,3.4,1.9,3.4C196.4,18.4,197.5,17.7,197.5,15z"/>
			<path class="st0" d="M202.7,15c0-4.1,2.3-5.3,5.1-5.3c3.6,0,4.8,2.2,4.8,5c0,0.5,0,0.9,0,0.9h-6.6v0.3c0,1.3,0.5,2.6,1.9,2.6
				c1,0,1.5-0.4,1.6-1.4l2.9,0.2c-0.4,1.7-1.4,3.2-4.6,3.2C204.5,20.5,202.7,18.7,202.7,15z M205.9,13.9h3.5v0
				c0-1.8-0.7-2.3-1.7-2.3C206.7,11.5,206,12,205.9,13.9z"/>
			<path class="st0" d="M225.5,20.3h-5.2V6.7h4.7c3.1,0,4.9,1.1,4.9,3.4c0,1.5-0.8,2.5-2.4,2.9c2.1,0.3,3.2,1.5,3.2,3.3
				C230.7,19.1,228.5,20.3,225.5,20.3z M224.7,8.9h-1.4v3.2h1.4c1.5,0,2.1-0.5,2.1-1.6C226.9,9.4,226.2,8.9,224.7,8.9z M225.1,14.4
				h-1.7V18h1.8c1.4,0,2.4-0.5,2.4-1.9C227.6,14.8,226.5,14.4,225.1,14.4z"/>
			<path class="st0" d="M232.8,20.3v-7.9c0-0.7,0-2.2-0.1-2.5h2.9c0,0.2,0.1,1.3,0.2,2c0.3-1.2,1.1-2.2,2.7-2.2c0.1,0,0.4,0,0.7,0
				v2.6c-0.4-0.1-0.7-0.1-1-0.1c-1.6,0-2.3,1.1-2.3,2.6v5.4H232.8z"/>
			<path class="st0" d="M250.4,18.3v2.1c-0.7,0.1-1,0.1-1.6,0.1c-1.5,0-2.5-0.7-2.5-1.9c-0.5,1.3-1.7,1.9-3.1,1.9
				c-2.3,0-3.4-1.5-3.4-3.1c0-2.4,1.7-3.4,5.1-3.4h1v-0.9c0-1.2-0.5-1.6-1.5-1.6c-1,0-1.5,0.5-1.5,1.5l-2.8-0.2
				c0.2-1.9,1.6-3.2,4.5-3.2c2.9,0,4.2,1.3,4.2,3.8v4.1c0,0.5,0.2,0.8,0.7,0.8H250.4z M244.3,18.5c1,0,1.8-0.8,1.8-2.2v-0.8h-1.3
				c-1,0-1.9,0.4-1.9,1.5C242.8,17.8,243.3,18.5,244.3,18.5z"/>
			<path class="st0" d="M255.7,20.5c-3.1,0-4.3-1.5-4.5-3l2.8-0.3c0.1,0.7,0.5,1.4,1.7,1.4c1,0,1.5-0.4,1.5-1c0-0.7-0.5-1-2.2-1.4
				c-2.6-0.6-3.5-1.6-3.5-3.3c0-1.9,1.4-3.1,4.2-3.1c2.5,0,4.1,1.2,4.3,2.9l-2.8,0.2c0-0.8-0.7-1.2-1.6-1.2c-0.9,0-1.3,0.4-1.3,0.9
				c0,0.6,0.2,0.9,2.3,1.4c2.1,0.5,3.7,1.2,3.7,3.3C260.2,19.2,258.7,20.5,255.7,20.5z"/>
			<path class="st0" d="M262,20.3V9.9h3v10.4H262z M262.2,8.9V8.6l2-2.8h2.7v0.4l-2.8,2.6H262.2z"/>
			<path class="st0" d="M267.4,20.3V5.1h3v15.2H267.4z"/>
			<path class="st0" d="M273,8.6V5.7h3v2.8H273z M273,20.3V9.9h3v10.4H273z"/>
			<path class="st0" d="M288.3,18.3v2.1c-0.7,0.1-1,0.1-1.6,0.1c-1.5,0-2.5-0.7-2.5-1.9c-0.5,1.3-1.6,1.9-3.1,1.9
				c-2.3,0-3.4-1.5-3.4-3.1c0-2.4,1.7-3.4,5.1-3.4h1v-0.9c0-1.2-0.5-1.6-1.5-1.6c-1,0-1.5,0.5-1.5,1.5l-2.8-0.2
				c0.2-1.9,1.6-3.2,4.5-3.2c2.9,0,4.2,1.3,4.2,3.8v4.1c0,0.5,0.2,0.8,0.7,0.8H288.3z M282.1,18.5c1,0,1.8-0.8,1.8-2.2v-0.8h-1.3
				c-1,0-1.9,0.4-1.9,1.5C280.7,17.8,281.1,18.5,282.1,18.5z"/>
		</g>
	</g>
</g>
</svg>
